<mxfile host="app.diagrams.net" modified="2021-08-23T12:04:37.469Z" agent="5.0 (X11)" etag="pyynYOgfBUO18UP9nDQF" version="14.2.4" type="github">
  <diagram id="C5RBs43oDa-KdzZeNtuy" name="Page-1">
    <mxGraphModel dx="1097" dy="523" grid="1" gridSize="10" guides="1" tooltips="1" connect="1" arrows="1" fold="1" page="1" pageScale="1" pageWidth="827" pageHeight="1169" math="0" shadow="0">
      <root>
        <mxCell id="WIyWlLk6GJQsqaUBKTNV-0" />
        <mxCell id="WIyWlLk6GJQsqaUBKTNV-1" parent="WIyWlLk6GJQsqaUBKTNV-0" />
        <mxCell id="WIyWlLk6GJQsqaUBKTNV-2" value="" style="rounded=0;html=1;jettySize=auto;orthogonalLoop=1;fontSize=11;endArrow=block;endFill=0;endSize=8;strokeWidth=1;shadow=0;labelBackgroundColor=none;edgeStyle=orthogonalEdgeStyle;" parent="WIyWlLk6GJQsqaUBKTNV-1" source="WIyWlLk6GJQsqaUBKTNV-3" target="WIyWlLk6GJQsqaUBKTNV-6" edge="1">
          <mxGeometry relative="1" as="geometry" />
        </mxCell>
        <mxCell id="WIyWlLk6GJQsqaUBKTNV-3" value="Get didLogin state" style="rounded=1;whiteSpace=wrap;html=1;fontSize=12;glass=0;strokeWidth=1;shadow=0;" parent="WIyWlLk6GJQsqaUBKTNV-1" vertex="1">
          <mxGeometry x="200" y="70" width="120" height="40" as="geometry" />
        </mxCell>
        <mxCell id="WIyWlLk6GJQsqaUBKTNV-4" value="Yes" style="rounded=0;html=1;jettySize=auto;orthogonalLoop=1;fontSize=11;endArrow=block;endFill=0;endSize=8;strokeWidth=1;shadow=0;labelBackgroundColor=none;edgeStyle=orthogonalEdgeStyle;" parent="WIyWlLk6GJQsqaUBKTNV-1" source="WIyWlLk6GJQsqaUBKTNV-6" target="O359kgjVD8V8Ssr4h9Wz-1" edge="1">
          <mxGeometry y="20" relative="1" as="geometry">
            <mxPoint as="offset" />
            <mxPoint x="420" y="210" as="targetPoint" />
          </mxGeometry>
        </mxCell>
        <mxCell id="WIyWlLk6GJQsqaUBKTNV-5" value="No" style="edgeStyle=orthogonalEdgeStyle;rounded=0;html=1;jettySize=auto;orthogonalLoop=1;fontSize=11;endArrow=block;endFill=0;endSize=8;strokeWidth=1;shadow=0;labelBackgroundColor=none;entryX=0.5;entryY=0;entryDx=0;entryDy=0;" parent="WIyWlLk6GJQsqaUBKTNV-1" source="WIyWlLk6GJQsqaUBKTNV-6" target="O359kgjVD8V8Ssr4h9Wz-0" edge="1">
          <mxGeometry y="10" relative="1" as="geometry">
            <mxPoint as="offset" />
            <mxPoint x="260" y="350" as="targetPoint" />
          </mxGeometry>
        </mxCell>
        <mxCell id="WIyWlLk6GJQsqaUBKTNV-6" value="&lt;div&gt;didLogin and JWT&lt;/div&gt;&lt;div&gt;token with redirect_to ?&lt;/div&gt;" style="rhombus;whiteSpace=wrap;html=1;shadow=0;fontFamily=Helvetica;fontSize=12;align=center;strokeWidth=1;spacing=6;spacingTop=-4;" parent="WIyWlLk6GJQsqaUBKTNV-1" vertex="1">
          <mxGeometry x="170" y="170" width="180" height="80" as="geometry" />
        </mxCell>
        <mxCell id="O359kgjVD8V8Ssr4h9Wz-5" value="" style="edgeStyle=orthogonalEdgeStyle;rounded=0;orthogonalLoop=1;jettySize=auto;html=1;" edge="1" parent="WIyWlLk6GJQsqaUBKTNV-1" source="O359kgjVD8V8Ssr4h9Wz-0" target="O359kgjVD8V8Ssr4h9Wz-4">
          <mxGeometry relative="1" as="geometry" />
        </mxCell>
        <mxCell id="O359kgjVD8V8Ssr4h9Wz-6" value="Yes" style="edgeLabel;html=1;align=center;verticalAlign=middle;resizable=0;points=[];" vertex="1" connectable="0" parent="O359kgjVD8V8Ssr4h9Wz-5">
          <mxGeometry x="-0.2308" relative="1" as="geometry">
            <mxPoint as="offset" />
          </mxGeometry>
        </mxCell>
        <mxCell id="O359kgjVD8V8Ssr4h9Wz-8" value="" style="edgeStyle=orthogonalEdgeStyle;rounded=0;orthogonalLoop=1;jettySize=auto;html=1;" edge="1" parent="WIyWlLk6GJQsqaUBKTNV-1" source="O359kgjVD8V8Ssr4h9Wz-0" target="O359kgjVD8V8Ssr4h9Wz-7">
          <mxGeometry relative="1" as="geometry" />
        </mxCell>
        <mxCell id="O359kgjVD8V8Ssr4h9Wz-9" value="No" style="edgeLabel;html=1;align=center;verticalAlign=middle;resizable=0;points=[];" vertex="1" connectable="0" parent="O359kgjVD8V8Ssr4h9Wz-8">
          <mxGeometry x="0.1917" relative="1" as="geometry">
            <mxPoint as="offset" />
          </mxGeometry>
        </mxCell>
        <mxCell id="O359kgjVD8V8Ssr4h9Wz-0" value="didLogin ?" style="rhombus;whiteSpace=wrap;html=1;shadow=0;fontFamily=Helvetica;fontSize=12;align=center;strokeWidth=1;spacing=6;spacingTop=-4;" vertex="1" parent="WIyWlLk6GJQsqaUBKTNV-1">
          <mxGeometry x="170" y="313" width="180" height="79" as="geometry" />
        </mxCell>
        <mxCell id="O359kgjVD8V8Ssr4h9Wz-1" value="Perform redirect" style="rounded=0;whiteSpace=wrap;html=1;" vertex="1" parent="WIyWlLk6GJQsqaUBKTNV-1">
          <mxGeometry x="450" y="180" width="150" height="60" as="geometry" />
        </mxCell>
        <mxCell id="O359kgjVD8V8Ssr4h9Wz-4" value="&lt;div&gt;handle selectedCompanyId&lt;/div&gt;&lt;div&gt;Allow access&lt;br&gt;&lt;/div&gt;" style="whiteSpace=wrap;html=1;shadow=0;strokeWidth=1;spacing=6;spacingTop=-4;" vertex="1" parent="WIyWlLk6GJQsqaUBKTNV-1">
          <mxGeometry x="450" y="323" width="150" height="59" as="geometry" />
        </mxCell>
        <mxCell id="O359kgjVD8V8Ssr4h9Wz-13" value="" style="edgeStyle=orthogonalEdgeStyle;rounded=0;orthogonalLoop=1;jettySize=auto;html=1;" edge="1" parent="WIyWlLk6GJQsqaUBKTNV-1" source="O359kgjVD8V8Ssr4h9Wz-7" target="O359kgjVD8V8Ssr4h9Wz-12">
          <mxGeometry relative="1" as="geometry" />
        </mxCell>
        <mxCell id="O359kgjVD8V8Ssr4h9Wz-15" value="" style="edgeStyle=orthogonalEdgeStyle;rounded=0;orthogonalLoop=1;jettySize=auto;html=1;entryX=0;entryY=0.5;entryDx=0;entryDy=0;" edge="1" parent="WIyWlLk6GJQsqaUBKTNV-1" source="O359kgjVD8V8Ssr4h9Wz-7" target="O359kgjVD8V8Ssr4h9Wz-22">
          <mxGeometry relative="1" as="geometry">
            <mxPoint x="430" y="490" as="targetPoint" />
          </mxGeometry>
        </mxCell>
        <mxCell id="O359kgjVD8V8Ssr4h9Wz-21" value="Yes" style="edgeLabel;html=1;align=center;verticalAlign=middle;resizable=0;points=[];" vertex="1" connectable="0" parent="O359kgjVD8V8Ssr4h9Wz-15">
          <mxGeometry x="-0.2333" y="-2" relative="1" as="geometry">
            <mxPoint as="offset" />
          </mxGeometry>
        </mxCell>
        <mxCell id="O359kgjVD8V8Ssr4h9Wz-7" value="&lt;div&gt;has login data&lt;/div&gt;&lt;div&gt;and JWT token&lt;/div&gt;" style="rhombus;whiteSpace=wrap;html=1;shadow=0;fontFamily=Helvetica;fontSize=12;align=center;strokeWidth=1;spacing=6;spacingTop=-4;" vertex="1" parent="WIyWlLk6GJQsqaUBKTNV-1">
          <mxGeometry x="170" y="450" width="180" height="80" as="geometry" />
        </mxCell>
        <mxCell id="O359kgjVD8V8Ssr4h9Wz-30" value="" style="edgeStyle=orthogonalEdgeStyle;rounded=0;orthogonalLoop=1;jettySize=auto;html=1;" edge="1" parent="WIyWlLk6GJQsqaUBKTNV-1" source="O359kgjVD8V8Ssr4h9Wz-12" target="O359kgjVD8V8Ssr4h9Wz-29">
          <mxGeometry relative="1" as="geometry" />
        </mxCell>
        <mxCell id="O359kgjVD8V8Ssr4h9Wz-31" value="No" style="edgeLabel;html=1;align=center;verticalAlign=middle;resizable=0;points=[];" vertex="1" connectable="0" parent="O359kgjVD8V8Ssr4h9Wz-30">
          <mxGeometry x="-0.225" y="-1" relative="1" as="geometry">
            <mxPoint as="offset" />
          </mxGeometry>
        </mxCell>
        <mxCell id="O359kgjVD8V8Ssr4h9Wz-45" value="Yes" style="edgeStyle=orthogonalEdgeStyle;rounded=0;orthogonalLoop=1;jettySize=auto;html=1;" edge="1" parent="WIyWlLk6GJQsqaUBKTNV-1" source="O359kgjVD8V8Ssr4h9Wz-12" target="O359kgjVD8V8Ssr4h9Wz-44">
          <mxGeometry relative="1" as="geometry" />
        </mxCell>
        <mxCell id="O359kgjVD8V8Ssr4h9Wz-12" value="no login data ?" style="rhombus;whiteSpace=wrap;html=1;shadow=0;fontFamily=Helvetica;fontSize=12;align=center;strokeWidth=1;spacing=6;spacingTop=-4;" vertex="1" parent="WIyWlLk6GJQsqaUBKTNV-1">
          <mxGeometry x="170" y="713" width="180" height="80" as="geometry" />
        </mxCell>
        <mxCell id="O359kgjVD8V8Ssr4h9Wz-19" value="No" style="edgeStyle=orthogonalEdgeStyle;rounded=0;orthogonalLoop=1;jettySize=auto;html=1;" edge="1" parent="WIyWlLk6GJQsqaUBKTNV-1" target="O359kgjVD8V8Ssr4h9Wz-18">
          <mxGeometry relative="1" as="geometry">
            <mxPoint x="520" y="530" as="sourcePoint" />
            <Array as="points">
              <mxPoint x="520" y="570" />
            </Array>
          </mxGeometry>
        </mxCell>
        <mxCell id="O359kgjVD8V8Ssr4h9Wz-18" value="Allow access" style="whiteSpace=wrap;html=1;shadow=0;strokeWidth=1;spacing=6;spacingTop=-4;" vertex="1" parent="WIyWlLk6GJQsqaUBKTNV-1">
          <mxGeometry x="430" y="570" width="180" height="60" as="geometry" />
        </mxCell>
        <mxCell id="O359kgjVD8V8Ssr4h9Wz-27" value="" style="edgeStyle=orthogonalEdgeStyle;rounded=0;orthogonalLoop=1;jettySize=auto;html=1;" edge="1" parent="WIyWlLk6GJQsqaUBKTNV-1" source="O359kgjVD8V8Ssr4h9Wz-22" target="O359kgjVD8V8Ssr4h9Wz-26">
          <mxGeometry relative="1" as="geometry" />
        </mxCell>
        <mxCell id="O359kgjVD8V8Ssr4h9Wz-28" value="Yes" style="edgeLabel;html=1;align=center;verticalAlign=middle;resizable=0;points=[];" vertex="1" connectable="0" parent="O359kgjVD8V8Ssr4h9Wz-27">
          <mxGeometry x="-0.5756" y="-3" relative="1" as="geometry">
            <mxPoint as="offset" />
          </mxGeometry>
        </mxCell>
        <mxCell id="O359kgjVD8V8Ssr4h9Wz-22" value="Session switch required ?" style="rhombus;whiteSpace=wrap;html=1;shadow=0;fontFamily=Helvetica;fontSize=12;align=center;strokeWidth=1;spacing=6;spacingTop=-4;" vertex="1" parent="WIyWlLk6GJQsqaUBKTNV-1">
          <mxGeometry x="430" y="450" width="180" height="80" as="geometry" />
        </mxCell>
        <mxCell id="O359kgjVD8V8Ssr4h9Wz-26" value="Do session switch" style="whiteSpace=wrap;html=1;shadow=0;strokeWidth=1;spacing=6;spacingTop=-4;" vertex="1" parent="WIyWlLk6GJQsqaUBKTNV-1">
          <mxGeometry x="670" y="460" width="120" height="60" as="geometry" />
        </mxCell>
        <mxCell id="O359kgjVD8V8Ssr4h9Wz-33" value="" style="edgeStyle=orthogonalEdgeStyle;rounded=0;orthogonalLoop=1;jettySize=auto;html=1;" edge="1" parent="WIyWlLk6GJQsqaUBKTNV-1" source="O359kgjVD8V8Ssr4h9Wz-29" target="O359kgjVD8V8Ssr4h9Wz-32">
          <mxGeometry relative="1" as="geometry" />
        </mxCell>
        <mxCell id="O359kgjVD8V8Ssr4h9Wz-34" value="No" style="edgeLabel;html=1;align=center;verticalAlign=middle;resizable=0;points=[];" vertex="1" connectable="0" parent="O359kgjVD8V8Ssr4h9Wz-33">
          <mxGeometry x="0.1852" y="-1" relative="1" as="geometry">
            <mxPoint as="offset" />
          </mxGeometry>
        </mxCell>
        <mxCell id="O359kgjVD8V8Ssr4h9Wz-37" value="" style="edgeStyle=orthogonalEdgeStyle;rounded=0;orthogonalLoop=1;jettySize=auto;html=1;" edge="1" parent="WIyWlLk6GJQsqaUBKTNV-1" source="O359kgjVD8V8Ssr4h9Wz-29" target="O359kgjVD8V8Ssr4h9Wz-36">
          <mxGeometry relative="1" as="geometry" />
        </mxCell>
        <mxCell id="O359kgjVD8V8Ssr4h9Wz-38" value="Yes" style="edgeLabel;html=1;align=center;verticalAlign=middle;resizable=0;points=[];" vertex="1" connectable="0" parent="O359kgjVD8V8Ssr4h9Wz-37">
          <mxGeometry x="-0.275" y="-1" relative="1" as="geometry">
            <mxPoint as="offset" />
          </mxGeometry>
        </mxCell>
        <mxCell id="O359kgjVD8V8Ssr4h9Wz-29" value="JWT token provided ?" style="rhombus;whiteSpace=wrap;html=1;shadow=0;fontFamily=Helvetica;fontSize=12;align=center;strokeWidth=1;spacing=6;spacingTop=-4;" vertex="1" parent="WIyWlLk6GJQsqaUBKTNV-1">
          <mxGeometry x="430" y="713" width="180" height="80" as="geometry" />
        </mxCell>
        <mxCell id="O359kgjVD8V8Ssr4h9Wz-32" value="&lt;div&gt;Handle selectedCompanyId,&lt;/div&gt;&lt;div&gt;redirect to login&lt;br&gt;&lt;/div&gt;" style="whiteSpace=wrap;html=1;shadow=0;strokeWidth=1;spacing=6;spacingTop=-4;" vertex="1" parent="WIyWlLk6GJQsqaUBKTNV-1">
          <mxGeometry x="430" y="864" width="180" height="60" as="geometry" />
        </mxCell>
        <mxCell id="O359kgjVD8V8Ssr4h9Wz-40" value="" style="edgeStyle=orthogonalEdgeStyle;rounded=0;orthogonalLoop=1;jettySize=auto;html=1;" edge="1" parent="WIyWlLk6GJQsqaUBKTNV-1" source="O359kgjVD8V8Ssr4h9Wz-36" target="O359kgjVD8V8Ssr4h9Wz-39">
          <mxGeometry relative="1" as="geometry" />
        </mxCell>
        <mxCell id="O359kgjVD8V8Ssr4h9Wz-41" value="No" style="edgeLabel;html=1;align=center;verticalAlign=middle;resizable=0;points=[];" vertex="1" connectable="0" parent="O359kgjVD8V8Ssr4h9Wz-40">
          <mxGeometry x="-0.2952" y="1" relative="1" as="geometry">
            <mxPoint as="offset" />
          </mxGeometry>
        </mxCell>
        <mxCell id="O359kgjVD8V8Ssr4h9Wz-43" value="Yes" style="edgeStyle=orthogonalEdgeStyle;rounded=0;orthogonalLoop=1;jettySize=auto;html=1;" edge="1" parent="WIyWlLk6GJQsqaUBKTNV-1" source="O359kgjVD8V8Ssr4h9Wz-36" target="O359kgjVD8V8Ssr4h9Wz-42">
          <mxGeometry relative="1" as="geometry" />
        </mxCell>
        <mxCell id="O359kgjVD8V8Ssr4h9Wz-36" value="Is on APPS domain ?" style="rhombus;whiteSpace=wrap;html=1;shadow=0;fontFamily=Helvetica;fontSize=12;align=center;strokeWidth=1;spacing=6;spacingTop=-4;fillColor=#fff2cc;strokeColor=#d6b656;" vertex="1" parent="WIyWlLk6GJQsqaUBKTNV-1">
          <mxGeometry x="690" y="713" width="180" height="80" as="geometry" />
        </mxCell>
        <mxCell id="O359kgjVD8V8Ssr4h9Wz-39" value="Load session from JWT token" style="whiteSpace=wrap;html=1;shadow=0;strokeWidth=1;spacing=6;spacingTop=-4;" vertex="1" parent="WIyWlLk6GJQsqaUBKTNV-1">
          <mxGeometry x="690" y="863" width="180" height="60" as="geometry" />
        </mxCell>
        <mxCell id="O359kgjVD8V8Ssr4h9Wz-42" value="&lt;div&gt;Get user&#39;s cluster domain,&lt;/div&gt;&lt;div&gt;perform redirect with JWT token data included&lt;br&gt;&lt;/div&gt;" style="whiteSpace=wrap;html=1;shadow=0;strokeWidth=1;spacing=6;spacingTop=-4;fillColor=#fff2cc;strokeColor=#d6b656;" vertex="1" parent="WIyWlLk6GJQsqaUBKTNV-1">
          <mxGeometry x="930" y="723" width="170" height="60" as="geometry" />
        </mxCell>
        <mxCell id="O359kgjVD8V8Ssr4h9Wz-44" value="use session data from localStorage, load account settings" style="whiteSpace=wrap;html=1;shadow=0;strokeWidth=1;spacing=6;spacingTop=-4;" vertex="1" parent="WIyWlLk6GJQsqaUBKTNV-1">
          <mxGeometry x="180" y="973" width="160" height="60" as="geometry" />
        </mxCell>
      </root>
    </mxGraphModel>
  </diagram>
</mxfile>
